<?xml version="1.0" encoding="UTF-8"?>
<svg width="30px" height="20px" viewBox="0 0 30 20" version="1.1" xmlns="http://www.w3.org/2000/svg" xmlns:xlink="http://www.w3.org/1999/xlink">
    <!-- Generator: Sketch 46.2 (44496) - http://www.bohemiancoding.com/sketch -->
    <title>united_states</title>
    <desc>Created with Sketch.</desc>
    <defs>
        <rect id="path-1" x="0" y="0" width="30" height="20" rx="2"/>
    </defs>
    <g id="Flags" stroke="none" stroke-width="1" fill="none" fill-rule="evenodd">
        <g id="united_states">
            <mask id="mask-2" fill="white">
                <use xlink:href="#path-1"/>
            </mask>
            <use id="mask" fill="#FFFFFF" xlink:href="#path-1"/>
            <g id="united-states" mask="url(#mask-2)">
                <g transform="translate(-0.200000, 0.000000)">
                    <path d="M29.9507143,19.983631 L0.52547619,19.983631 C0.235297619,19.983631 0,19.7483333 0,19.4581548 L0,0.541904762 C0,0.25172619 0.235297619,0.0164285714 0.52547619,0.0164285714 L29.9507738,0.0164285714 C30.2409524,0.0164285714 30.47625,0.25172619 30.47625,0.541904762 L30.47625,19.4581548 C30.4761905,19.7483929 30.2408929,19.983631 29.9507143,19.983631 Z" id="Shape" fill="#F5F5F5" fill-rule="nonzero"/>
                    <g id="Group" stroke-width="1" fill="none" fill-rule="evenodd">
                        <path d="M30.4761905,1.55244048 L0,1.55244048 L0,0.541904762 C0,0.25172619 0.235297619,0.0164285714 0.52547619,0.0164285714 L29.9507738,0.0164285714 C30.2409524,0.0164285714 30.47625,0.25172619 30.47625,0.541904762 L30.4761905,1.55244048 L30.4761905,1.55244048 Z" id="Shape" fill="#FF4B55" fill-rule="nonzero"/>
                        <rect id="Rectangle-path" fill="#FF4B55" fill-rule="nonzero" x="0" y="6.16017857" width="30.4761905" height="1.53595238"/>
                        <rect id="Rectangle-path" fill="#FF4B55" fill-rule="nonzero" x="0" y="3.08815476" width="30.4761905" height="1.53595238"/>
                        <path d="M30.4761905,10.7680357 L0.52547619,10.7680357 C0.235297619,10.7680357 0,10.5327381 0,10.2425595 L0,9.23202381 L30.4761905,9.23202381 L30.4761905,10.7680357 Z" id="Shape" fill="#FF4B55" fill-rule="nonzero"/>
                        <rect id="Rectangle-path" fill="#FF4B55" fill-rule="nonzero" x="0" y="15.37625" width="30.4761905" height="1.53595238"/>
                        <path d="M29.9507143,19.983631 L0.52547619,19.983631 C0.235297619,19.983631 0,19.7483333 0,19.4581548 L0,18.4476786 L30.4761905,18.4476786 L30.4761905,19.4582143 C30.4761905,19.7483929 30.2408929,19.983631 29.9507143,19.983631 Z" id="Shape" fill="#FF4B55" fill-rule="nonzero"/>
                        <rect id="Rectangle-path" fill="#FF4B55" fill-rule="nonzero" x="0" y="12.3042262" width="30.4761905" height="1.53595238"/>
                    </g>
                    <path d="M13.6617262,0.0164880952 L0.52547619,0.0164880952 C0.235297619,0.0164880952 0,0.25172619 0,0.541904762 L0,10.2425 C0,10.5326786 0.235297619,10.7679762 0.52547619,10.7679762 L13.6617857,10.7679762 C13.9519643,10.7679762 14.1872619,10.5326786 14.1872619,10.2425 L14.1872619,0.541904762 C14.1872024,0.25172619 13.9519048,0.0164880952 13.6617262,0.0164880952 Z" id="Shape" fill="#41479B" fill-rule="nonzero"/>
                    <g id="Group" stroke-width="1" fill="none" fill-rule="evenodd" transform="translate(0.833333, 1.130952)">
                        <path d="M0.642202381,0.091547619 L0.758511905,0.440357143 L1.12619048,0.443154762 C1.17380952,0.443571429 1.1935119,0.504285714 1.1552381,0.532559524 L0.859464286,0.751011905 L0.970416667,1.10154762 C0.984821429,1.14690476 0.933095238,1.18452381 0.894345238,1.15678571 L0.595238095,0.943035714 L0.296130952,1.15684524 C0.257380952,1.18452381 0.20577381,1.14696429 0.220059524,1.10160714 L0.331011905,0.751071429 L0.0352380952,0.532619048 C-0.00303571429,0.504285714 0.0166666667,0.443630952 0.0642857143,0.443214286 L0.431964286,0.440416667 L0.54827381,0.0916071429 C0.56327381,0.0463690476 0.627083333,0.0463690476 0.642202381,0.091547619 Z" id="Shape" fill="#F5F5F5" fill-rule="nonzero"/>
                        <path d="M0.642202381,1.91619048 L0.758511905,2.265 L1.12619048,2.26779762 C1.17380952,2.26821429 1.1935119,2.32892857 1.1552381,2.35720238 L0.859464286,2.57565476 L0.970416667,2.92619048 C0.984821429,2.97154762 0.933095238,3.00916667 0.894345238,2.98142857 L0.595238095,2.76767857 L0.296130952,2.9814881 C0.257380952,3.00916667 0.20577381,2.97160714 0.220059524,2.92625 L0.331011905,2.57571429 L0.0352380952,2.3572619 C-0.00303571429,2.32892857 0.0166666667,2.26827381 0.0642857143,2.26785714 L0.431964286,2.26505952 L0.54827381,1.91625 C0.56327381,1.87107143 0.627083333,1.87107143 0.642202381,1.91619048 Z" id="Shape" fill="#F5F5F5" fill-rule="nonzero"/>
                        <path d="M0.642202381,3.74083333 L0.758511905,4.08964286 L1.12619048,4.09244048 C1.17380952,4.09285714 1.1935119,4.15357143 1.1552381,4.18184524 L0.859464286,4.40029762 L0.970416667,4.75083333 C0.984821429,4.79619048 0.933095238,4.83380952 0.894345238,4.80607143 L0.595238095,4.59232143 L0.296130952,4.80613095 C0.257380952,4.83380952 0.20577381,4.79625 0.220059524,4.75089286 L0.331011905,4.40035714 L0.0352380952,4.18190476 C-0.00303571429,4.15357143 0.0166666667,4.09291667 0.0642857143,4.0925 L0.431964286,4.08970238 L0.54827381,3.74089286 C0.56327381,3.69571429 0.627083333,3.69571429 0.642202381,3.74083333 Z" id="Shape" fill="#F5F5F5" fill-rule="nonzero"/>
                        <path d="M0.642202381,5.56553571 L0.758511905,5.91434524 L1.12619048,5.91714286 C1.17380952,5.91755952 1.1935119,5.97827381 1.1552381,6.00654762 L0.859464286,6.225 L0.970416667,6.57553571 C0.984821429,6.62089286 0.933095238,6.6585119 0.894345238,6.63077381 L0.595238095,6.41702381 L0.296130952,6.63083333 C0.257380952,6.6585119 0.20577381,6.62095238 0.220059524,6.57559524 L0.331011905,6.22505952 L0.0352380952,6.00660714 C-0.00303571429,5.97827381 0.0166666667,5.91761905 0.0642857143,5.91720238 L0.431964286,5.91440476 L0.54827381,5.56559524 C0.56327381,5.52035714 0.627083333,5.52035714 0.642202381,5.56553571 Z" id="Shape" fill="#F5F5F5" fill-rule="nonzero"/>
                        <path d="M0.642202381,7.39017857 L0.758511905,7.7389881 L1.12619048,7.74178571 C1.17380952,7.74220238 1.1935119,7.80291667 1.1552381,7.83119048 L0.859464286,8.04964286 L0.970416667,8.40017857 C0.984821429,8.44553571 0.933095238,8.48315476 0.894345238,8.45541667 L0.595238095,8.24166667 L0.296130952,8.45547619 C0.257380952,8.48315476 0.20577381,8.44559524 0.220059524,8.4002381 L0.331011905,8.04970238 L0.0352380952,7.83125 C-0.00303571429,7.80291667 0.0166666667,7.7422619 0.0642857143,7.74184524 L0.431964286,7.73904762 L0.54827381,7.3902381 C0.56327381,7.34494048 0.627083333,7.34494048 0.642202381,7.39017857 Z" id="Shape" fill="#F5F5F5" fill-rule="nonzero"/>
                        <path d="M2.05845238,0.986130952 L2.1747619,1.33494048 L2.54244048,1.3377381 C2.59005952,1.33815476 2.6097619,1.39886905 2.5714881,1.42714286 L2.27571429,1.64559524 L2.38666667,1.99613095 C2.40107143,2.0414881 2.34934524,2.07910714 2.31059524,2.05136905 L2.0114881,1.83755952 L1.71238095,2.05136905 C1.67363095,2.07904762 1.62202381,2.0414881 1.63630952,1.99613095 L1.7472619,1.64559524 L1.4514881,1.42714286 C1.41321429,1.39880952 1.43291667,1.33815476 1.48053571,1.3377381 L1.84821429,1.33494048 L1.96452381,0.986130952 C1.97946429,0.941011905 2.04339286,0.941011905 2.05845238,0.986130952 Z" id="Shape" fill="#F5F5F5" fill-rule="nonzero"/>
                        <path d="M2.05845238,2.81083333 L2.1747619,3.15964286 L2.54244048,3.16244048 C2.59005952,3.16285714 2.6097619,3.22357143 2.5714881,3.25184524 L2.27571429,3.47029762 L2.38666667,3.82083333 C2.40107143,3.86619048 2.34934524,3.90380952 2.31059524,3.87607143 L2.0114881,3.6622619 L1.71238095,3.87607143 C1.67363095,3.90375 1.62202381,3.86625 1.63630952,3.82083333 L1.7472619,3.47029762 L1.4514881,3.25184524 C1.41321429,3.2235119 1.43291667,3.16285714 1.48053571,3.16244048 L1.84821429,3.15964286 L1.96452381,2.81083333 C1.97946429,2.76565476 2.04339286,2.76565476 2.05845238,2.81083333 Z" id="Shape" fill="#F5F5F5" fill-rule="nonzero"/>
                        <path d="M2.05845238,4.63547619 L2.1747619,4.98428571 L2.54244048,4.98708333 C2.59005952,4.9875 2.6097619,5.04821429 2.5714881,5.0764881 L2.27571429,5.29494048 L2.38666667,5.64547619 C2.40107143,5.69083333 2.34934524,5.72845238 2.31059524,5.70071429 L2.0114881,5.48690476 L1.71238095,5.70071429 C1.67363095,5.72839286 1.62202381,5.69083333 1.63630952,5.64547619 L1.7472619,5.29494048 L1.4514881,5.0764881 C1.41321429,5.04815476 1.43291667,4.9875 1.48053571,4.98708333 L1.84821429,4.98428571 L1.96452381,4.63547619 C1.97946429,4.59029762 2.04339286,4.59029762 2.05845238,4.63547619 Z" id="Shape" fill="#F5F5F5" fill-rule="nonzero"/>
                        <path d="M2.05845238,6.46011905 L2.1747619,6.80892857 L2.54244048,6.81172619 C2.59005952,6.81214286 2.6097619,6.87285714 2.5714881,6.90113095 L2.27571429,7.11958333 L2.38666667,7.47011905 C2.40107143,7.51547619 2.34934524,7.55309524 2.31059524,7.52535714 L2.0114881,7.31154762 L1.71238095,7.52535714 C1.67363095,7.55303571 1.62202381,7.51547619 1.63630952,7.47011905 L1.7472619,7.11958333 L1.4514881,6.90113095 C1.41321429,6.87279762 1.43291667,6.81214286 1.48053571,6.81172619 L1.84821429,6.80892857 L1.96452381,6.46011905 C1.97946429,6.415 2.04339286,6.415 2.05845238,6.46011905 Z" id="Shape" fill="#F5F5F5" fill-rule="nonzero"/>
                        <path d="M3.47470238,0.091547619 L3.5910119,0.440357143 L3.95869048,0.443154762 C4.00630952,0.443571429 4.0260119,0.504285714 3.9877381,0.532559524 L3.69196429,0.751011905 L3.80291667,1.10154762 C3.81732143,1.14690476 3.76559524,1.18452381 3.72684524,1.15678571 L3.4277381,0.94297619 L3.12863095,1.15678571 C3.08988095,1.18446429 3.03827381,1.14690476 3.05255952,1.10154762 L3.1635119,0.751011905 L2.8677381,0.532559524 C2.82946429,0.50422619 2.84916667,0.443571429 2.89678571,0.443154762 L3.26446429,0.440357143 L3.38077381,0.091547619 C3.39577381,0.0463690476 3.45964286,0.0463690476 3.47470238,0.091547619 Z" id="Shape" fill="#F5F5F5" fill-rule="nonzero"/>
                        <path d="M3.47470238,1.91619048 L3.5910119,2.265 L3.95869048,2.26779762 C4.00630952,2.26821429 4.0260119,2.32892857 3.9877381,2.35720238 L3.69196429,2.57565476 L3.80291667,2.92619048 C3.81732143,2.97154762 3.76559524,3.00916667 3.72684524,2.98142857 L3.4277381,2.76761905 L3.12863095,2.98142857 C3.08988095,3.00910714 3.03827381,2.97154762 3.05255952,2.92619048 L3.1635119,2.57565476 L2.8677381,2.35720238 C2.82946429,2.32886905 2.84916667,2.26821429 2.89678571,2.26779762 L3.26446429,2.265 L3.38077381,1.91619048 C3.39577381,1.87107143 3.45964286,1.87107143 3.47470238,1.91619048 Z" id="Shape" fill="#F5F5F5" fill-rule="nonzero"/>
                        <path d="M3.47470238,3.74083333 L3.5910119,4.08964286 L3.95869048,4.09244048 C4.00630952,4.09285714 4.0260119,4.15357143 3.9877381,4.18184524 L3.69196429,4.40029762 L3.80291667,4.75083333 C3.81732143,4.79619048 3.76559524,4.83380952 3.72684524,4.80607143 L3.4277381,4.5922619 L3.12863095,4.80607143 C3.08988095,4.83375 3.03827381,4.79619048 3.05255952,4.75083333 L3.1635119,4.40029762 L2.8677381,4.18184524 C2.82946429,4.1535119 2.84916667,4.09285714 2.89678571,4.09244048 L3.26446429,4.08964286 L3.38077381,3.74083333 C3.39577381,3.69571429 3.45964286,3.69571429 3.47470238,3.74083333 Z" id="Shape" fill="#F5F5F5" fill-rule="nonzero"/>
                        <path d="M3.47470238,5.56553571 L3.5910119,5.91434524 L3.95869048,5.91714286 C4.00630952,5.91755952 4.0260119,5.97827381 3.9877381,6.00654762 L3.69196429,6.225 L3.80291667,6.57553571 C3.81732143,6.62089286 3.76559524,6.6585119 3.72684524,6.63077381 L3.4277381,6.41696429 L3.12863095,6.63077381 C3.08988095,6.65845238 3.03827381,6.62089286 3.05255952,6.57553571 L3.1635119,6.225 L2.8677381,6.00654762 C2.82946429,5.97821429 2.84916667,5.91755952 2.89678571,5.91714286 L3.26446429,5.91434524 L3.38077381,5.56553571 C3.39577381,5.52035714 3.45964286,5.52035714 3.47470238,5.56553571 Z" id="Shape" fill="#F5F5F5" fill-rule="nonzero"/>
                        <path d="M3.47470238,7.39017857 L3.5910119,7.7389881 L3.95869048,7.74178571 C4.00630952,7.74220238 4.0260119,7.80291667 3.9877381,7.83119048 L3.69196429,8.04964286 L3.80291667,8.40017857 C3.81732143,8.44553571 3.76559524,8.48315476 3.72684524,8.45541667 L3.4277381,8.24160714 L3.12863095,8.45541667 C3.08988095,8.48309524 3.03827381,8.44553571 3.05255952,8.40017857 L3.1635119,8.04964286 L2.8677381,7.83119048 C2.82946429,7.80285714 2.84916667,7.74220238 2.89678571,7.74178571 L3.26446429,7.7389881 L3.38077381,7.39017857 C3.39577381,7.34494048 3.45964286,7.34494048 3.47470238,7.39017857 Z" id="Shape" fill="#F5F5F5" fill-rule="nonzero"/>
                        <path d="M4.8910119,0.986130952 L5.00732143,1.33494048 L5.375,1.3377381 C5.42261905,1.33815476 5.44232143,1.39886905 5.40404762,1.42714286 L5.10827381,1.64559524 L5.21922619,1.99613095 C5.23363095,2.0414881 5.18190476,2.07910714 5.14315476,2.05136905 L4.84404762,1.83755952 L4.54494048,2.05136905 C4.50619048,2.07904762 4.45458333,2.0414881 4.46886905,1.99613095 L4.57982143,1.64559524 L4.28404762,1.42714286 C4.24577381,1.39880952 4.26547619,1.33815476 4.31309524,1.3377381 L4.68077381,1.33494048 L4.79708333,0.986130952 C4.81202381,0.941011905 4.87595238,0.941011905 4.8910119,0.986130952 Z" id="Shape" fill="#F5F5F5" fill-rule="nonzero"/>
                        <path d="M4.8910119,2.81083333 L5.00732143,3.15964286 L5.375,3.16244048 C5.42261905,3.16285714 5.44232143,3.22357143 5.40404762,3.25184524 L5.10827381,3.47029762 L5.21922619,3.82083333 C5.23363095,3.86619048 5.18190476,3.90380952 5.14315476,3.87607143 L4.84404762,3.6622619 L4.54494048,3.87607143 C4.50619048,3.90375 4.45458333,3.86625 4.46886905,3.82083333 L4.57982143,3.47029762 L4.28404762,3.25184524 C4.24577381,3.2235119 4.26547619,3.16285714 4.31309524,3.16244048 L4.68077381,3.15964286 L4.79708333,2.81083333 C4.81202381,2.76565476 4.87595238,2.76565476 4.8910119,2.81083333 Z" id="Shape" fill="#F5F5F5" fill-rule="nonzero"/>
                        <path d="M4.8910119,4.63547619 L5.00732143,4.98428571 L5.375,4.98708333 C5.42261905,4.9875 5.44232143,5.04821429 5.40404762,5.0764881 L5.10827381,5.29494048 L5.21922619,5.64547619 C5.23363095,5.69083333 5.18190476,5.72845238 5.14315476,5.70071429 L4.84404762,5.48690476 L4.54494048,5.70071429 C4.50619048,5.72839286 4.45458333,5.69083333 4.46886905,5.64547619 L4.57982143,5.29494048 L4.28404762,5.0764881 C4.24577381,5.04815476 4.26547619,4.9875 4.31309524,4.98708333 L4.68077381,4.98428571 L4.79708333,4.63547619 C4.81202381,4.59029762 4.87595238,4.59029762 4.8910119,4.63547619 Z" id="Shape" fill="#F5F5F5" fill-rule="nonzero"/>
                        <path d="M4.8910119,6.46011905 L5.00732143,6.80892857 L5.375,6.81172619 C5.42261905,6.81214286 5.44232143,6.87285714 5.40404762,6.90113095 L5.10827381,7.11958333 L5.21922619,7.47011905 C5.23363095,7.51547619 5.18190476,7.55309524 5.14315476,7.52535714 L4.84404762,7.31154762 L4.54494048,7.52535714 C4.50619048,7.55303571 4.45458333,7.51547619 4.46886905,7.47011905 L4.57982143,7.11958333 L4.28404762,6.90113095 C4.24577381,6.87279762 4.26547619,6.81214286 4.31309524,6.81172619 L4.68077381,6.80892857 L4.79708333,6.46011905 C4.81202381,6.415 4.87595238,6.415 4.8910119,6.46011905 Z" id="Shape" fill="#F5F5F5" fill-rule="nonzero"/>
                        <path d="M6.3072619,0.091547619 L6.42357143,0.440357143 L6.79125,0.443154762 C6.83886905,0.443571429 6.85857143,0.504285714 6.82029762,0.532559524 L6.52452381,0.751011905 L6.63547619,1.10154762 C6.64988095,1.14690476 6.59815476,1.18452381 6.55940476,1.15678571 L6.2602381,0.94297619 L5.96113095,1.15678571 C5.92238095,1.18446429 5.87077381,1.14690476 5.88505952,1.10154762 L5.9960119,0.751011905 L5.7002381,0.532559524 C5.66196429,0.50422619 5.68166667,0.443571429 5.72928571,0.443154762 L6.09696429,0.440357143 L6.21327381,0.091547619 C6.22833333,0.0463690476 6.29220238,0.0463690476 6.3072619,0.091547619 Z" id="Shape" fill="#F5F5F5" fill-rule="nonzero"/>
                        <path d="M6.3072619,1.91619048 L6.42357143,2.265 L6.79125,2.26779762 C6.83886905,2.26821429 6.85857143,2.32892857 6.82029762,2.35720238 L6.52452381,2.57565476 L6.63547619,2.92619048 C6.64988095,2.97154762 6.59815476,3.00916667 6.55940476,2.98142857 L6.2602381,2.76761905 L5.96113095,2.98142857 C5.92238095,3.00910714 5.87077381,2.97154762 5.88505952,2.92619048 L5.9960119,2.57565476 L5.7002381,2.35720238 C5.66196429,2.32886905 5.68166667,2.26821429 5.72928571,2.26779762 L6.09696429,2.265 L6.21327381,1.91619048 C6.22833333,1.87107143 6.29220238,1.87107143 6.3072619,1.91619048 Z" id="Shape" fill="#F5F5F5" fill-rule="nonzero"/>
                        <path d="M6.3072619,3.74083333 L6.42357143,4.08964286 L6.79125,4.09244048 C6.83886905,4.09285714 6.85857143,4.15357143 6.82029762,4.18184524 L6.52452381,4.40029762 L6.63547619,4.75083333 C6.64988095,4.79619048 6.59815476,4.83380952 6.55940476,4.80607143 L6.2602381,4.5922619 L5.96113095,4.80607143 C5.92238095,4.83375 5.87077381,4.79619048 5.88505952,4.75083333 L5.9960119,4.40029762 L5.7002381,4.18184524 C5.66196429,4.1535119 5.68166667,4.09285714 5.72928571,4.09244048 L6.09696429,4.08964286 L6.21327381,3.74083333 C6.22833333,3.69571429 6.29220238,3.69571429 6.3072619,3.74083333 Z" id="Shape" fill="#F5F5F5" fill-rule="nonzero"/>
                        <path d="M6.3072619,5.56553571 L6.42357143,5.91434524 L6.79125,5.91714286 C6.83886905,5.91755952 6.85857143,5.97827381 6.82029762,6.00654762 L6.52452381,6.225 L6.63547619,6.57553571 C6.64988095,6.62089286 6.59815476,6.6585119 6.55940476,6.63077381 L6.2602381,6.41696429 L5.96113095,6.63077381 C5.92238095,6.65845238 5.87077381,6.62089286 5.88505952,6.57553571 L5.9960119,6.225 L5.7002381,6.00654762 C5.66196429,5.97821429 5.68166667,5.91755952 5.72928571,5.91714286 L6.09696429,5.91434524 L6.21327381,5.56553571 C6.22833333,5.52035714 6.29220238,5.52035714 6.3072619,5.56553571 Z" id="Shape" fill="#F5F5F5" fill-rule="nonzero"/>
                        <path d="M6.3072619,7.39017857 L6.42357143,7.7389881 L6.79125,7.74178571 C6.83886905,7.74220238 6.85857143,7.80291667 6.82029762,7.83119048 L6.52452381,8.04964286 L6.63547619,8.40017857 C6.64988095,8.44553571 6.59815476,8.48315476 6.55940476,8.45541667 L6.2602381,8.24160714 L5.96113095,8.45541667 C5.92238095,8.48309524 5.87077381,8.44553571 5.88505952,8.40017857 L5.9960119,8.04964286 L5.7002381,7.83119048 C5.66196429,7.80285714 5.68166667,7.74220238 5.72928571,7.74178571 L6.09696429,7.7389881 L6.21327381,7.39017857 C6.22833333,7.34494048 6.29220238,7.34494048 6.3072619,7.39017857 Z" id="Shape" fill="#F5F5F5" fill-rule="nonzero"/>
                        <path d="M7.7235119,0.986130952 L7.83982143,1.33494048 L8.2075,1.3377381 C8.25511905,1.33815476 8.27482143,1.39886905 8.23654762,1.42714286 L7.94077381,1.64559524 L8.05172619,1.99613095 C8.06613095,2.0414881 8.01440476,2.07910714 7.97565476,2.05136905 L7.67654762,1.83755952 L7.37744048,2.05136905 C7.33869048,2.07904762 7.28708333,2.0414881 7.30136905,1.99613095 L7.41232143,1.64559524 L7.11654762,1.42714286 C7.07827381,1.39880952 7.09797619,1.33815476 7.14559524,1.3377381 L7.51327381,1.33494048 L7.62958333,0.986130952 C7.64464286,0.941011905 7.70845238,0.941011905 7.7235119,0.986130952 Z" id="Shape" fill="#F5F5F5" fill-rule="nonzero"/>
                        <path d="M7.7235119,2.81083333 L7.83982143,3.15964286 L8.2075,3.16244048 C8.25511905,3.16285714 8.27482143,3.22357143 8.23654762,3.25184524 L7.94077381,3.47029762 L8.05172619,3.82083333 C8.06613095,3.86619048 8.01440476,3.90380952 7.97565476,3.87607143 L7.67654762,3.6622619 L7.37744048,3.87607143 C7.33869048,3.90375 7.28708333,3.86625 7.30136905,3.82083333 L7.41232143,3.47029762 L7.11654762,3.25184524 C7.07827381,3.2235119 7.09797619,3.16285714 7.14559524,3.16244048 L7.51327381,3.15964286 L7.62958333,2.81083333 C7.64464286,2.76565476 7.70845238,2.76565476 7.7235119,2.81083333 Z" id="Shape" fill="#F5F5F5" fill-rule="nonzero"/>
                        <path d="M7.7235119,4.63547619 L7.83982143,4.98428571 L8.2075,4.98708333 C8.25511905,4.9875 8.27482143,5.04821429 8.23654762,5.0764881 L7.94077381,5.29494048 L8.05172619,5.64547619 C8.06613095,5.69083333 8.01440476,5.72845238 7.97565476,5.70071429 L7.67654762,5.48690476 L7.37744048,5.70071429 C7.33869048,5.72839286 7.28708333,5.69083333 7.30136905,5.64547619 L7.41232143,5.29494048 L7.11654762,5.0764881 C7.07827381,5.04815476 7.09797619,4.9875 7.14559524,4.98708333 L7.51327381,4.98428571 L7.62958333,4.63547619 C7.64464286,4.59029762 7.70845238,4.59029762 7.7235119,4.63547619 Z" id="Shape" fill="#F5F5F5" fill-rule="nonzero"/>
                        <path d="M7.7235119,6.46011905 L7.83982143,6.80892857 L8.2075,6.81172619 C8.25511905,6.81214286 8.27482143,6.87285714 8.23654762,6.90113095 L7.94077381,7.11958333 L8.05172619,7.47011905 C8.06613095,7.51547619 8.01440476,7.55309524 7.97565476,7.52535714 L7.67654762,7.31154762 L7.37744048,7.52535714 C7.33869048,7.55303571 7.28708333,7.51547619 7.30136905,7.47011905 L7.41232143,7.11958333 L7.11654762,6.90113095 C7.07827381,6.87279762 7.09797619,6.81214286 7.14559524,6.81172619 L7.51327381,6.80892857 L7.62958333,6.46011905 C7.64464286,6.415 7.70845238,6.415 7.7235119,6.46011905 Z" id="Shape" fill="#F5F5F5" fill-rule="nonzero"/>
                        <path d="M9.13982143,0.091547619 L9.25613095,0.440357143 L9.62380952,0.443154762 C9.67142857,0.443571429 9.69113095,0.504285714 9.65285714,0.532559524 L9.35708333,0.751011905 L9.46803571,1.10154762 C9.48244048,1.14690476 9.43071429,1.18452381 9.39196429,1.15678571 L9.09285714,0.94297619 L8.79375,1.15678571 C8.755,1.18446429 8.70339286,1.14690476 8.71767857,1.10154762 L8.82863095,0.751011905 L8.53285714,0.532559524 C8.49458333,0.50422619 8.51428571,0.443571429 8.56190476,0.443154762 L8.92958333,0.440357143 L9.04589286,0.091547619 C9.06083333,0.0463690476 9.1247619,0.0463690476 9.13982143,0.091547619 Z" id="Shape" fill="#F5F5F5" fill-rule="nonzero"/>
                        <path d="M9.13982143,1.91619048 L9.25613095,2.265 L9.62380952,2.26779762 C9.67142857,2.26821429 9.69113095,2.32892857 9.65285714,2.35720238 L9.35708333,2.57565476 L9.46803571,2.92619048 C9.48244048,2.97154762 9.43071429,3.00916667 9.39196429,2.98142857 L9.09285714,2.76761905 L8.79375,2.98142857 C8.755,3.00910714 8.70339286,2.97154762 8.71767857,2.92619048 L8.82863095,2.57565476 L8.53285714,2.35720238 C8.49458333,2.32886905 8.51428571,2.26821429 8.56190476,2.26779762 L8.92958333,2.265 L9.04589286,1.91619048 C9.06083333,1.87107143 9.1247619,1.87107143 9.13982143,1.91619048 Z" id="Shape" fill="#F5F5F5" fill-rule="nonzero"/>
                        <path d="M9.13982143,3.74083333 L9.25613095,4.08964286 L9.62380952,4.09244048 C9.67142857,4.09285714 9.69113095,4.15357143 9.65285714,4.18184524 L9.35708333,4.40029762 L9.46803571,4.75083333 C9.48244048,4.79619048 9.43071429,4.83380952 9.39196429,4.80607143 L9.09285714,4.5922619 L8.79375,4.80607143 C8.755,4.83375 8.70339286,4.79619048 8.71767857,4.75083333 L8.82863095,4.40029762 L8.53285714,4.18184524 C8.49458333,4.1535119 8.51428571,4.09285714 8.56190476,4.09244048 L8.92958333,4.08964286 L9.04589286,3.74083333 C9.06083333,3.69571429 9.1247619,3.69571429 9.13982143,3.74083333 Z" id="Shape" fill="#F5F5F5" fill-rule="nonzero"/>
                        <path d="M9.13982143,5.56553571 L9.25613095,5.91434524 L9.62380952,5.91714286 C9.67142857,5.91755952 9.69113095,5.97827381 9.65285714,6.00654762 L9.35708333,6.225 L9.46803571,6.57553571 C9.48244048,6.62089286 9.43071429,6.6585119 9.39196429,6.63077381 L9.09285714,6.41696429 L8.79375,6.63077381 C8.755,6.65845238 8.70339286,6.62089286 8.71767857,6.57553571 L8.82863095,6.225 L8.53285714,6.00654762 C8.49458333,5.97821429 8.51428571,5.91755952 8.56190476,5.91714286 L8.92958333,5.91434524 L9.04589286,5.56553571 C9.06083333,5.52035714 9.1247619,5.52035714 9.13982143,5.56553571 Z" id="Shape" fill="#F5F5F5" fill-rule="nonzero"/>
                        <path d="M9.13982143,7.39017857 L9.25613095,7.7389881 L9.62380952,7.74178571 C9.67142857,7.74220238 9.69113095,7.80291667 9.65285714,7.83119048 L9.35708333,8.04964286 L9.46803571,8.40017857 C9.48244048,8.44553571 9.43071429,8.48315476 9.39196429,8.45541667 L9.09285714,8.24160714 L8.79375,8.45541667 C8.755,8.48309524 8.70339286,8.44553571 8.71767857,8.40017857 L8.82863095,8.04964286 L8.53285714,7.83119048 C8.49458333,7.80285714 8.51428571,7.74220238 8.56190476,7.74178571 L8.92958333,7.7389881 L9.04589286,7.39017857 C9.06083333,7.34494048 9.1247619,7.34494048 9.13982143,7.39017857 Z" id="Shape" fill="#F5F5F5" fill-rule="nonzero"/>
                        <path d="M10.5560714,0.986130952 L10.672381,1.33494048 L11.0400595,1.3377381 C11.0876786,1.33815476 11.107381,1.39886905 11.0691071,1.42714286 L10.7733333,1.64559524 L10.8842857,1.99613095 C10.8986905,2.0414881 10.8469643,2.07910714 10.8082143,2.05136905 L10.5091071,1.83755952 L10.21,2.05136905 C10.17125,2.07904762 10.1196429,2.0414881 10.1339286,1.99613095 L10.244881,1.64559524 L9.94910714,1.42714286 C9.91083333,1.39880952 9.93053571,1.33815476 9.97815476,1.3377381 L10.3458333,1.33494048 L10.4621429,0.986130952 C10.4771429,0.941011905 10.5410714,0.941011905 10.5560714,0.986130952 Z" id="Shape" fill="#F5F5F5" fill-rule="nonzero"/>
                        <path d="M10.5560714,2.81083333 L10.672381,3.15964286 L11.0400595,3.16244048 C11.0876786,3.16285714 11.107381,3.22357143 11.0691071,3.25184524 L10.7733333,3.47029762 L10.8842857,3.82083333 C10.8986905,3.86619048 10.8469643,3.90380952 10.8082143,3.87607143 L10.5091071,3.6622619 L10.21,3.87607143 C10.17125,3.90375 10.1196429,3.86625 10.1339286,3.82083333 L10.244881,3.47029762 L9.94910714,3.25184524 C9.91083333,3.2235119 9.93053571,3.16285714 9.97815476,3.16244048 L10.3458333,3.15964286 L10.4621429,2.81083333 C10.4771429,2.76565476 10.5410714,2.76565476 10.5560714,2.81083333 Z" id="Shape" fill="#F5F5F5" fill-rule="nonzero"/>
                        <path d="M10.5560714,4.63547619 L10.672381,4.98428571 L11.0400595,4.98708333 C11.0876786,4.9875 11.107381,5.04821429 11.0691071,5.0764881 L10.7733333,5.29494048 L10.8842857,5.64547619 C10.8986905,5.69083333 10.8469643,5.72845238 10.8082143,5.70071429 L10.5091071,5.48690476 L10.21,5.70071429 C10.17125,5.72839286 10.1196429,5.69083333 10.1339286,5.64547619 L10.244881,5.29494048 L9.94910714,5.0764881 C9.91083333,5.04815476 9.93053571,4.9875 9.97815476,4.98708333 L10.3458333,4.98428571 L10.4621429,4.63547619 C10.4771429,4.59029762 10.5410714,4.59029762 10.5560714,4.63547619 Z" id="Shape" fill="#F5F5F5" fill-rule="nonzero"/>
                        <path d="M10.5560714,6.46011905 L10.672381,6.80892857 L11.0400595,6.81172619 C11.0876786,6.81214286 11.107381,6.87285714 11.0691071,6.90113095 L10.7733333,7.11958333 L10.8842857,7.47011905 C10.8986905,7.51547619 10.8469643,7.55309524 10.8082143,7.52535714 L10.5091071,7.31154762 L10.21,7.52535714 C10.17125,7.55303571 10.1196429,7.51547619 10.1339286,7.47011905 L10.244881,7.11958333 L9.94910714,6.90113095 C9.91083333,6.87279762 9.93053571,6.81214286 9.97815476,6.81172619 L10.3458333,6.80892857 L10.4621429,6.46011905 C10.4771429,6.415 10.5410714,6.415 10.5560714,6.46011905 Z" id="Shape" fill="#F5F5F5" fill-rule="nonzero"/>
                        <path d="M11.972381,0.091547619 L12.0886905,0.440357143 L12.456369,0.443154762 C12.5039881,0.443571429 12.5236905,0.504285714 12.4854167,0.532559524 L12.1896429,0.751011905 L12.3005952,1.10154762 C12.315,1.14690476 12.2632738,1.18452381 12.2245238,1.15678571 L11.9254167,0.94297619 L11.6263095,1.15678571 C11.5875595,1.18446429 11.5359524,1.14690476 11.5502381,1.10154762 L11.6611905,0.751011905 L11.3654167,0.532559524 C11.3271429,0.50422619 11.3468452,0.443571429 11.3944643,0.443154762 L11.7621429,0.440357143 L11.8784524,0.091547619 C11.8934524,0.0463690476 11.9572619,0.0463690476 11.972381,0.091547619 Z" id="Shape" fill="#F5F5F5" fill-rule="nonzero"/>
                        <path d="M11.972381,1.91619048 L12.0886905,2.265 L12.456369,2.26779762 C12.5039881,2.26821429 12.5236905,2.32892857 12.4854167,2.35720238 L12.1896429,2.57565476 L12.3005952,2.92619048 C12.315,2.97154762 12.2632738,3.00916667 12.2245238,2.98142857 L11.9254167,2.76761905 L11.6263095,2.98142857 C11.5875595,3.00910714 11.5359524,2.97154762 11.5502381,2.92619048 L11.6611905,2.57565476 L11.3654167,2.35720238 C11.3271429,2.32886905 11.3468452,2.26821429 11.3944643,2.26779762 L11.7621429,2.265 L11.8784524,1.91619048 C11.8934524,1.87107143 11.9572619,1.87107143 11.972381,1.91619048 Z" id="Shape" fill="#F5F5F5" fill-rule="nonzero"/>
                        <path d="M11.972381,3.74083333 L12.0886905,4.08964286 L12.456369,4.09244048 C12.5039881,4.09285714 12.5236905,4.15357143 12.4854167,4.18184524 L12.1896429,4.40029762 L12.3005952,4.75083333 C12.315,4.79619048 12.2632738,4.83380952 12.2245238,4.80607143 L11.9254167,4.5922619 L11.6263095,4.80607143 C11.5875595,4.83375 11.5359524,4.79619048 11.5502381,4.75083333 L11.6611905,4.40029762 L11.3654167,4.18184524 C11.3271429,4.1535119 11.3468452,4.09285714 11.3944643,4.09244048 L11.7621429,4.08964286 L11.8784524,3.74083333 C11.8934524,3.69571429 11.9572619,3.69571429 11.972381,3.74083333 Z" id="Shape" fill="#F5F5F5" fill-rule="nonzero"/>
                        <path d="M11.972381,5.56553571 L12.0886905,5.91434524 L12.456369,5.91714286 C12.5039881,5.91755952 12.5236905,5.97827381 12.4854167,6.00654762 L12.1896429,6.225 L12.3005952,6.57553571 C12.315,6.62089286 12.2632738,6.6585119 12.2245238,6.63077381 L11.9254167,6.41696429 L11.6263095,6.63077381 C11.5875595,6.65845238 11.5359524,6.62089286 11.5502381,6.57553571 L11.6611905,6.225 L11.3654167,6.00654762 C11.3271429,5.97821429 11.3468452,5.91755952 11.3944643,5.91714286 L11.7621429,5.91434524 L11.8784524,5.56553571 C11.8934524,5.52035714 11.9572619,5.52035714 11.972381,5.56553571 Z" id="Shape" fill="#F5F5F5" fill-rule="nonzero"/>
                        <path d="M11.972381,7.39017857 L12.0886905,7.7389881 L12.456369,7.74178571 C12.5039881,7.74220238 12.5236905,7.80291667 12.4854167,7.83119048 L12.1896429,8.04964286 L12.3005952,8.40017857 C12.315,8.44553571 12.2632738,8.48315476 12.2245238,8.45541667 L11.9254167,8.24160714 L11.6263095,8.45541667 C11.5875595,8.48309524 11.5359524,8.44553571 11.5502381,8.40017857 L11.6611905,8.04964286 L11.3654167,7.83119048 C11.3271429,7.80285714 11.3468452,7.74220238 11.3944643,7.74178571 L11.7621429,7.7389881 L11.8784524,7.39017857 C11.8934524,7.34494048 11.9572619,7.34494048 11.972381,7.39017857 Z" id="Shape" fill="#F5F5F5" fill-rule="nonzero"/>
                    </g>
                </g>
            </g>
        </g>
    </g>
</svg>